<svg id="レイヤー_1" data-name="レイヤー 1" xmlns="http://www.w3.org/2000/svg" viewBox="0 0 128 128"><defs><style>.cls-1,.cls-9{fill:none;}.cls-1,.cls-2,.cls-3,.cls-9{stroke:#811e4e;}.cls-1,.cls-8,.cls-9{stroke-linecap:round;}.cls-1,.cls-2,.cls-3,.cls-7,.cls-8,.cls-9{stroke-miterlimit:10;}.cls-1{stroke-width:7px;}.cls-2,.cls-5,.cls-6,.cls-8{fill:#fff;}.cls-3,.cls-4{fill:#811e4e;}.cls-4,.cls-5{font-size:20px;font-family:Chalkboard, Chalkboard;}.cls-7{fill:#ad2e70;stroke-width:1.5px;}.cls-7,.cls-8{stroke:#fff;}.cls-9{stroke-width:6px;}</style></defs><title>アートボード 1</title><path class="cls-1" d="M20.5,71.5s-14-28-9-40,20-16,13-27"/><path class="cls-2" d="M62.79,117a54,54,0,0,0,0-108,27,27,0,0,1,0,54,27,27,0,0,0,0,54Z"/><path class="cls-3" d="M62.79,9a54,54,0,0,0,0,108,27,27,0,1,1,0-54,27,27,0,1,0,0-54Z"/><text class="cls-4" transform="translate(59.08 97.27)">1</text><text class="cls-5" transform="translate(56.71 36.77) rotate(50.09)">0</text><path class="cls-1" d="M21.63,81.64c7.49,6.92,2.32,16.84,8,21.34s13.1-5.78,18.24-2.1,5.12,17.29,12.32,17"/><path class="cls-1" d="M22,67.63c5.19,8.78-2.6,16.8,1.6,22.75s14.21-1.79,18.07,3.21-.05,18,6.93,19.82"/><path class="cls-1" d="M42.74,120.09c-6.1-2.26-3.56-15.23-7.19-20.55s-11.73,1.9-15.7-4.39S22.06,81.2,17.06,72c0,0-11.56,17.53-5.56,25.53s14,5,13,14"/><circle class="cls-6" cx="34.5" cy="91.5" r="1.5"/><circle class="cls-6" cx="40.5" cy="92.5" r="1.5"/><circle class="cls-6" cx="42.5" cy="97.5" r="1.5"/><circle class="cls-6" cx="43.5" cy="102.5" r="1.5"/><circle class="cls-6" cx="44.5" cy="107.5" r="1.5"/><circle class="cls-6" cx="46.5" cy="112.5" r="1.5"/><circle class="cls-6" cx="49.5" cy="102.5" r="1.5"/><circle class="cls-6" cx="51.5" cy="107.5" r="1.5"/><circle class="cls-6" cx="53.5" cy="112.5" r="1.5"/><circle class="cls-6" cx="56.5" cy="116.5" r="1.5"/><circle class="cls-6" cx="26.5" cy="91.5" r="1.5"/><circle class="cls-6" cx="29.5" cy="97.5" r="1.5"/><circle class="cls-6" cx="32.5" cy="101.5" r="1.5"/><circle class="cls-6" cx="25.5" cy="85.5" r="1.5"/><circle class="cls-6" cx="25.5" cy="6.5" r="1.5"/><circle class="cls-6" cx="79.5" cy="76.5" r="1.5"/><circle class="cls-6" cx="37.5" cy="103.5" r="1.5"/><circle class="cls-6" cx="38.5" cy="108.5" r="1.5"/><circle class="cls-6" cx="38.5" cy="113.5" r="1.5"/><circle class="cls-6" cx="40.5" cy="118.5" r="1.5"/><circle class="cls-6" cx="22.5" cy="96.5" r="1.5"/><circle class="cls-6" cx="18.5" cy="92.5" r="1.5"/><circle class="cls-6" cx="18.5" cy="86.5" r="1.5"/><circle class="cls-6" cx="15.5" cy="79.5" r="1.5"/><circle class="cls-6" cx="26.5" cy="11.5" r="1.5"/><circle class="cls-6" cx="23.5" cy="15.5" r="1.5"/><circle class="cls-6" cx="20.5" cy="19.5" r="1.5"/><circle class="cls-6" cx="16.5" cy="23.5" r="1.5"/><circle class="cls-6" cx="13.5" cy="27.5" r="1.5"/><circle class="cls-6" cx="10.5" cy="32.5" r="1.5"/><circle class="cls-6" cx="10.5" cy="37.5" r="1.5"/><circle class="cls-6" cx="11.5" cy="43.5" r="1.5"/><circle class="cls-6" cx="13.5" cy="48.5" r="1.5"/><circle class="cls-6" cx="15.5" cy="53.5" r="1.5"/><ellipse class="cls-7" cx="51.71" cy="61.28" rx="5.07" ry="2.8" transform="translate(-22.03 29.79) rotate(-26.72)"/><path class="cls-8" d="M55.5,58.5s-6-2-7-4"/><path class="cls-8" d="M46.5,61.5a2.19,2.19,0,0,0-3-1"/><circle class="cls-6" cx="18.5" cy="102.5" r="1.5"/><circle class="cls-6" cx="22.5" cy="105.5" r="1.5"/><circle class="cls-6" cx="9.5" cy="95.5" r="1.5"/><circle class="cls-6" cx="24.5" cy="110.5" r="1.5"/><circle class="cls-6" cx="12.5" cy="83.5" r="1.5"/><path class="cls-9" d="M12.5,64.5s-9,7-9,14,11,13,10,21-9,17-9,17"/><circle class="cls-6" cx="5.5" cy="71.5" r="1.5"/><circle class="cls-6" cx="3.5" cy="76.5" r="1.5"/><circle class="cls-6" cx="4.5" cy="81.5" r="1.5"/><circle class="cls-6" cx="7.5" cy="86.5" r="1.5"/><circle class="cls-6" cx="10.5" cy="90.5" r="1.5"/><circle class="cls-6" cx="13.5" cy="95.5" r="1.5"/><circle class="cls-6" cx="13.5" cy="100.5" r="1.5"/><circle class="cls-6" cx="11.5" cy="105.5" r="1.5"/><circle class="cls-6" cx="8.5" cy="110.5" r="1.5"/><circle class="cls-6" cx="5.5" cy="115.5" r="1.5"/><circle class="cls-6" cx="10.5" cy="67.5" r="1.5"/><path class="cls-1" d="M28.5,67.5S36,87,42,81s13.75-13.75,20.5-7"/><circle class="cls-6" cx="62.5" cy="73.5" r="1.5"/><circle class="cls-6" cx="58.5" cy="71.5" r="1.5"/><circle class="cls-6" cx="53.5" cy="72.5" r="1.5"/><circle class="cls-6" cx="49.5" cy="74.5" r="1.5"/><circle class="cls-6" cx="45.5" cy="77.5" r="1.5"/><circle class="cls-6" cx="41.5" cy="80.5" r="1.5"/><circle class="cls-6" cx="35.5" cy="80.5" r="1.5"/><path class="cls-9" d="M28.5,70.5s-2-9-9-9S8,65,4.5,58.5c-2.37-4.4,2-11,1-15"/><circle class="cls-6" cx="5.5" cy="45.5" r="1.5"/><circle class="cls-6" cx="4.5" cy="50.5" r="1.5"/><circle class="cls-6" cx="3.5" cy="55.5" r="1.5"/><circle class="cls-6" cx="5.5" cy="60.5" r="1.5"/><circle class="cls-6" cx="10.5" cy="61.5" r="1.5"/><circle class="cls-6" cx="32.5" cy="85.5" r="1.5"/><circle class="cls-6" cx="14.5" cy="72.5" r="1.5"/></svg>